<?xml version="1.0" encoding="UTF-8" standalone="no"?>
<svg
   xmlns:dc="http://purl.org/dc/elements/1.1/"
   xmlns:cc="http://creativecommons.org/ns#"
   xmlns:rdf="http://www.w3.org/1999/02/22-rdf-syntax-ns#"
   xmlns:svg="http://www.w3.org/2000/svg"
   xmlns="http://www.w3.org/2000/svg"
   xmlns:sodipodi="http://sodipodi.sourceforge.net/DTD/sodipodi-0.dtd"
   xmlns:inkscape="http://www.inkscape.org/namespaces/inkscape"
   viewBox="0 -256 1792 1792"
   id="svg2"
   version="1.1"
   inkscape:version="0.48.3.1 r9886"
   width="100%"
   height="100%"
   sodipodi:docname="off_font_awesome.svg">
  <metadata
     id="metadata12">
    <rdf:RDF>
      <cc:Work
         rdf:about="">
        <dc:format>image/svg+xml</dc:format>
        <dc:type
           rdf:resource="http://purl.org/dc/dcmitype/StillImage" />
      </cc:Work>
    </rdf:RDF>
  </metadata>
  <defs
     id="defs10" />
  <sodipodi:namedview
     pagecolor="#ffffff"
     bordercolor="#666666"
     borderopacity="1"
     objecttolerance="10"
     gridtolerance="10"
     guidetolerance="10"
     inkscape:pageopacity="0"
     inkscape:pageshadow="2"
     inkscape:window-width="640"
     inkscape:window-height="480"
     id="namedview8"
     showgrid="false"
     inkscape:zoom="0.13169643"
     inkscape:cx="896"
     inkscape:cy="896"
     inkscape:window-x="0"
     inkscape:window-y="25"
     inkscape:window-maximized="0"
     inkscape:current-layer="svg2" />
  <g
     transform="matrix(1,0,0,-1,113.89831,1346.1695)"
     id="g4">
    <path
       d="M 1536,640 Q 1536,484 1475,342 1414,200 1311,97 1208,-6 1066,-67 924,-128 768,-128 612,-128 470,-67 328,-6 225,97 122,200 61,342 0,484 0,640 0,822 80.5,983 161,1144 307,1253 q 43,32 95.5,25 52.5,-7 83.5,-50 32,-42 24.5,-94.5 Q 503,1081 461,1049 363,975 309.5,868 256,761 256,640 256,536 296.5,441.5 337,347 406,278 475,209 569.5,168.5 664,128 768,128 872,128 966.5,168.5 1061,209 1130,278 q 69,69 109.5,163.5 40.5,94.5 40.5,198.5 0,121 -53.5,228 -53.5,107 -151.5,181 -42,32 -49.5,84.5 -7.5,52.5 24.5,94.5 31,43 84,50 53,7 95,-25 146,-109 226.5,-270 Q 1536,822 1536,640 z M 896,1408 V 768 q 0,-52 -38,-90 -38,-38 -90,-38 -52,0 -90,38 -38,38 -38,90 v 640 q 0,52 38,90 38,38 90,38 52,0 90,-38 38,-38 38,-90 z"
       id="path6"
       inkscape:connector-curvature="0"
       style="fill:currentColor" />
  </g>
</svg>
